<svg width="120" height="120" viewBox="0 0 120 120" fill="none" xmlns="http://www.w3.org/2000/svg">
<path d="M89 92H74.6743L64.14 68.1872C58.3894 71.442 55.1069 78.957 49.28 83.9317C46.3029 86.472 42.8423 88.7212 38.5166 90.2559C36.5573 90.9439 33.224 91.8436 31.9772 91.9759C31.4428 92.0288 31.0866 92.0024 31.0103 91.8171C30.9594 91.6584 31.0866 91.5525 31.6464 91.2614C32.2825 90.9439 34.9034 89.8061 36.5573 88.6153C38.6184 87.107 39.7889 85.4929 39.8907 84.2492C39.3309 82.1852 35.2851 77.581 39.4072 69.1398C40.883 66.0968 42.1553 63.927 43.0713 61.7307C44.1146 59.2169 44.8779 55.6711 45.1324 53.0249C45.1578 52.8662 45.1833 52.8662 45.2596 52.972C47.2698 55.0889 55.056 63.3977 53.911 71.6801C56.5064 70.6481 60.9848 67.4992 63.0458 65.8322C65.2341 64.0593 66.6591 62.2334 68.9746 62.1805C71.0356 62.1541 71.2138 63.186 72.8677 63.3977C73.2748 63.4507 73.8855 63.3713 74.1909 63.2125C74.3181 63.1596 74.2926 63.0008 74.0891 62.9479C71.8499 62.3922 71.2901 60.487 68.3893 60.487C65.7939 60.487 63.7074 62.9744 62.2061 64.0064L54.8525 48.0767C51.799 41.4084 52.7151 36.566 59.4835 27.04L89 92Z" fill="black"/>
</svg>
