<svg width="120" height="120" viewBox="0 0 120 120" fill="none" xmlns="http://www.w3.org/2000/svg">
<path d="M76.8438 80.2295C77.8103 81.9226 79.9508 82.5027 81.6249 81.5252C83.2989 80.5476 83.8725 78.3827 82.906 76.6896L79.3891 70.5288H84.5C86.433 70.5288 88 68.9439 88 66.9889C88 65.0338 86.433 63.449 84.5 63.449H75.3477L65.2494 45.7588C63.5564 48.1059 61.756 51.0848 62.4088 54.9423L76.8438 80.2295Z" fill="#AC8E68"/>
<path d="M55.9585 43.6427L52.3438 37.3104C51.3773 35.6173 51.9508 33.4524 53.6249 32.4748C55.2989 31.4973 57.4395 32.0774 58.406 33.7705L60 36.5629L61.594 33.7705C62.5605 32.0774 64.7011 31.4973 66.3751 32.4748C68.0491 33.4524 68.6227 35.6173 67.6562 37.3104L52.7352 63.449H64.1161C66.1977 64.1714 67.875 66.5422 67.875 68.7588C67.875 69.2767 67.7536 69.884 67.5552 70.5288H35.5C33.567 70.5288 32 68.9439 32 66.9889C32 65.0338 33.567 63.449 35.5 63.449H44.6523L55.9585 43.6427Z" fill="#AC8E68"/>
<path d="M42.4999 71.8562C43.9796 71.8562 45.3029 72.6471 46.7343 73.9614L43.1562 80.2295C42.1897 81.9226 40.0491 82.5027 38.3751 81.5252C36.7011 80.5476 36.1275 78.3827 37.094 76.6896L39.6139 72.2752C40.3033 72.0619 40.6852 71.9572 41.0741 71.9058C41.449 71.8562 41.8304 71.8562 42.4999 71.8562Z" fill="#AC8E68"/>
<circle cx="59.5" cy="59.5" r="38" stroke="#AC8E68" stroke-width="3"/>
</svg>
