<svg width="120" height="120" viewBox="0 0 120 120" fill="none" xmlns="http://www.w3.org/2000/svg">
<g clip-path="url(#clip0_9_169)">
<path d="M66.14 45.9068C69.9454 45.9021 73.7438 45.8977 77.5496 45.8947C77.5513 47.6203 77.5526 49.352 77.5543 51.0772C79.7931 51.0759 82.0184 51.0729 84.2591 51.0712C84.2615 53.4456 84.2639 55.8214 84.2655 58.1993C82.0261 58.2009 79.7998 58.204 77.5621 58.2053C77.5674 63.3684 77.5725 68.4994 77.5772 73.6625C74.7617 73.9096 71.3148 74.1177 69.1097 73.4106C67.937 73.0345 66.9444 71.9493 66.5194 70.822C66.1464 69.8429 66.1329 61.2502 66.1295 58.2174C64.5989 58.2174 63.0372 58.2191 61.5079 58.2222C61.5049 55.8443 61.5032 53.4689 61.5005 51.0941C63.0295 51.0927 64.5915 51.091 66.1221 51.0894C66.1201 49.385 66.076 47.5095 66.14 45.9068Z" fill="#F47920"/>
<path d="M18.2161 50.4904C24.7256 50.0052 32.0163 52.0339 33.3948 56.6585C33.4382 56.8663 33.6079 57.7791 33.6079 57.7791C33.6079 57.7791 33.6443 70.4901 33.6473 73.741C29.8651 73.7457 26.0782 73.7481 22.298 73.7528C22.2956 71.6133 22.2936 69.4695 22.2919 67.3314C19.1107 68.2698 12.3176 69.6345 16.6514 73.7592C13.9062 73.7619 6.64211 73.7861 5.36128 73.7696C3.70098 73.4006 2.72116 71.1234 3.12084 68.9416C3.48279 66.9567 4.74039 65.5634 6.23335 64.6977C9.89234 62.5721 15.3194 62.6903 20.0508 61.5606C20.6693 61.4121 21.2919 61.3438 21.7552 61.0286C22.038 60.836 22.1538 60.5707 22.2252 60.1444C22.5407 58.2249 20.6134 57.6562 18.8114 57.676C18.2723 57.6808 17.5255 57.7656 17.047 57.9141C16.7133 58.0141 16.2494 58.2323 15.9887 58.4447C15.4413 58.8845 15.1076 59.5108 15.1093 60.5067C11.4648 60.5101 7.81385 60.5141 4.17035 60.5175C4.30065 59.5438 4.46901 58.7404 4.75622 57.9838C5.27508 56.6161 5.96466 55.538 6.87006 54.5649C9.35933 51.887 13.3934 50.8483 18.2161 50.4904Z" fill="#F47920"/>
<path d="M55.7361 50.5695C56.987 50.4769 58.085 50.7984 58.9709 51.0968C58.9732 53.4716 58.9756 55.8474 58.978 58.2235C56.9463 58.2265 54.7462 58.1006 53.3327 58.7009C52.4799 59.0602 51.6239 59.8989 51.2768 60.7663C50.831 61.87 50.9859 63.6653 50.9872 65.1832C50.9903 68.026 50.9926 70.8786 50.9963 73.7248C47.1343 73.7275 43.2696 73.7319 39.4106 73.7352C39.4032 66.1947 39.3954 58.6572 39.3877 51.1166C42.916 51.1119 46.5461 51.1092 50.0775 51.1045C50.0788 51.9917 50.0125 53.1136 50.0933 53.816C51.2404 51.9793 52.9576 50.7755 55.7361 50.5695Z" fill="#F47920"/>
<path d="M116.553 58.5191C115.441 56.0443 113.572 53.9534 111.254 52.6934C108.585 51.2422 104.806 50.2614 100.49 50.5843C92.7865 51.1544 87.5117 54.7039 86.2106 61.7306C85.7224 64.3583 86.0392 67.3967 86.8066 69.5059C87.1305 70.3988 88.6036 73.4484 89.2814 73.6851C90.2609 73.6319 95.5896 73.6783 97.691 73.6773C97.6886 71.7894 97.6863 69.9079 97.6846 68.0217C104.346 68.0156 111.016 68.0095 117.68 68.0018C118.139 64.5708 117.642 60.9481 116.553 58.5191ZM97.325 62.0734C97.4038 61.0498 97.531 60.3235 97.9102 59.6579C98.5024 58.6104 99.557 57.8868 101.026 57.7353C104.644 57.3578 106.279 59.0528 106.617 62.064C103.52 62.0657 100.42 62.0704 97.325 62.0734Z" fill="#F47920"/>
</g>
<defs>
<clipPath id="clip0_9_169">
<rect width="114.819" height="28" fill="white" transform="translate(3 46)"/>
</clipPath>
</defs>
</svg>
