<svg width="120" height="120" viewBox="0 0 120 120" fill="none" xmlns="http://www.w3.org/2000/svg">
<path d="M59.3125 98.0781C38.2578 98.0781 20.9922 80.8125 20.9922 59.7969C20.9922 38.7422 38.2578 21.4766 59.2734 21.4766C80.3281 21.4766 97.5938 38.7422 97.5938 59.7969C97.5938 80.8125 80.3281 98.0781 59.3125 98.0781ZM59.3125 95.1094C78.8047 95.1094 94.625 79.2891 94.625 59.7969C94.625 40.3047 78.8047 24.4453 59.2734 24.4453C39.7812 24.4453 23.9609 40.3047 23.9609 59.7969C23.9609 79.2891 39.7812 95.1094 59.3125 95.1094ZM57.5547 54.9922C56.8125 55.5781 56.2656 56.3203 55.875 57.2578L50.6016 54.4453C50.3672 54.3281 50.0938 54.2109 49.7812 54.2109C48.4141 54.2109 47.2031 56.2031 43.5703 56.2031C39.3125 56.2031 35.9531 52.8438 35.9531 48.625C35.9531 44.3281 39.3125 40.9297 43.5703 40.9297C47.7891 40.9297 51.2266 44.3281 51.2266 48.625C51.2266 50.6562 50.7969 51.3984 51.9688 52.0234L57.5547 54.9922ZM43.5703 54.0938C46.5781 54.0938 49 51.6719 49 48.625C49 45.5391 46.5781 43.1172 43.5703 43.1172C40.5234 43.1172 38.1406 45.5391 38.1406 48.625C38.1406 51.6719 40.5625 54.0938 43.5703 54.0938ZM43.5703 78.6641C39.3125 78.6641 35.9531 75.2656 35.9531 70.9688C35.9531 66.75 39.3125 63.3906 43.5703 63.3906C47.1641 63.3906 48.375 65.3438 49.7812 65.3438C50.0938 65.3438 50.3672 65.3047 50.6016 65.1484L55.7578 62.3359C56.6562 61.8672 56.8125 61.3984 57.0078 60.6172L57.3984 59.1719C57.9062 57.2578 58.7266 56.3203 60.7578 55.5391L77.5547 49.2109C81.1484 47.8438 83.7656 48.1172 84.8203 49.9141L51.9297 67.5703C50.7969 68.2344 51.2266 68.9375 51.2266 70.9688C51.2266 75.2656 47.7891 78.6641 43.5703 78.6641ZM61.0703 60.1484C61.6562 60.1484 62.1641 59.6406 62.1641 59.0547C62.1641 58.3906 61.6953 57.9219 61.0703 57.9219C60.4844 57.9219 59.9766 58.4297 59.9766 59.0547C59.9766 59.6016 60.5234 60.1484 61.0703 60.1484ZM62.4375 64.3281L68.3359 61.1641L84.8203 69.6797C83.8047 71.5547 81.0703 71.8672 77.4766 70.4219L62.4375 64.3281ZM43.5703 76.4375C46.5781 76.4375 49 74.0156 49 70.9688C49 67.9219 46.5781 65.5 43.5703 65.5C40.5625 65.5 38.1406 67.9219 38.1406 70.9688C38.1406 74.0156 40.5234 76.4375 43.5703 76.4375Z" fill="#AC8E68"/>
</svg>
