<svg width="120" height="120" viewBox="0 0 120 120" fill="none" xmlns="http://www.w3.org/2000/svg">
<path d="M67.0621 54.4652H58.6508V38H67.0621C71.6014 38 75.2938 41.6923 75.2938 46.2317C75.2938 50.771 71.6014 54.4652 67.0621 54.4652V54.4652ZM61.3476 51.7683H67.0621C70.1146 51.7683 72.5969 49.2842 72.5969 46.2335C72.5969 43.1828 70.1128 40.6987 67.0621 40.6987H61.3476V51.7683V51.7683ZM61.3476 54.4652H52.9381C48.3988 54.4652 44.7064 50.7728 44.7064 46.2335C44.7064 41.6942 48.3988 38 52.9381 38H61.3494V54.4652H61.3476ZM52.9381 40.6968C49.8856 40.6968 47.4033 43.181 47.4033 46.2317C47.4033 49.2823 49.8856 51.7683 52.9381 51.7683H58.6526V40.6968H52.9381ZM61.3476 68.2317H52.9381C48.3988 68.2317 44.7064 64.5393 44.7064 60C44.7064 55.4607 48.3988 51.7683 52.9381 51.7683H61.3494V68.2317H61.3476ZM52.9381 54.4652C49.8856 54.4652 47.4033 56.9493 47.4033 60C47.4033 63.0507 49.8874 65.5348 52.9381 65.5348H58.6526V54.4652H52.9381ZM52.9821 82C48.4189 82 44.7046 78.3077 44.7046 73.7683C44.7046 69.229 48.3969 65.5367 52.9363 65.5367H61.3476V73.6785C61.3476 78.2673 57.5948 82 52.9821 82V82ZM52.9381 68.2317C51.4708 68.2336 50.0641 68.8174 49.0265 69.8549C47.989 70.8925 47.4052 72.2992 47.4033 73.7665C47.4033 76.819 49.9058 79.3013 52.9839 79.3013C56.1098 79.3013 58.6544 76.7787 58.6544 73.6767V68.2317H52.9381V68.2317ZM67.0621 68.2317H66.8824C62.3431 68.2317 58.6508 64.5393 58.6508 60C58.6508 55.4607 62.3431 51.7683 66.8824 51.7683H67.0621C71.6014 51.7683 75.2938 55.4607 75.2938 60C75.2938 64.5393 71.6014 68.2317 67.0621 68.2317V68.2317ZM66.8843 54.4652C63.8318 54.4652 61.3494 56.9493 61.3494 60C61.3494 63.0507 63.8336 65.5348 66.8843 65.5348H67.0639C70.1164 65.5348 72.5988 63.0507 72.5988 60C72.5988 56.9493 70.1146 54.4652 67.0639 54.4652H66.8843V54.4652Z" fill="#AC8E68"/>
<circle cx="59.5" cy="59.5" r="38" stroke="#AC8E68" stroke-width="3"/>
</svg>
