<svg width="120" height="120" viewBox="0 0 120 120" fill="none" xmlns="http://www.w3.org/2000/svg">
<path d="M108.714 54.8611L108.49 54.9357C107.619 53.044 106.374 51.5381 104.756 50.4179C103.164 49.2983 101.16 48.7385 98.7465 48.7385C97.4026 48.7385 96.1207 49.0248 94.9011 49.5973C93.6814 50.1443 92.6112 50.9282 91.6906 51.949C90.7941 52.9442 90.0724 54.1515 89.5254 55.5707C88.9777 56.9886 88.7039 58.5564 88.7039 60.274C88.7039 61.991 88.9777 63.5588 89.5254 64.9774C90.0731 66.3959 90.7948 67.6156 91.6906 68.6364C92.6112 69.6316 93.6811 70.4031 94.9001 70.9507C96.1204 71.4984 97.4026 71.7722 98.7465 71.7722C101.136 71.7722 103.077 71.3989 104.57 70.6524C106.088 69.8802 107.37 68.7103 108.415 67.1425L108.639 67.2171L108.564 69.6061C107.992 70.2035 107.332 70.7387 106.586 71.2118C105.84 71.66 105.031 72.0461 104.159 72.37C103.313 72.6677 102.43 72.8915 101.509 73.0413C100.588 73.2154 99.6672 73.3024 98.7465 73.3024C96.83 73.3024 95.0008 72.9916 93.259 72.37C91.5165 71.7471 89.9857 70.8758 88.6666 69.7563C87.3475 68.6112 86.3022 67.2423 85.5307 65.6497C84.7593 64.0322 84.3735 62.2403 84.3735 60.274C84.3735 58.3078 84.7596 56.528 85.5317 54.9347C86.3025 53.3172 87.3475 51.9362 88.6666 50.7918C89.9857 49.6467 91.5165 48.7755 93.259 48.1781C95.0008 47.5565 96.8297 47.2457 98.7456 47.2457C99.6669 47.2457 100.588 47.3199 101.509 47.4685C102.43 47.6183 103.313 47.8548 104.159 48.1781C105.03 48.4771 105.839 48.8632 106.586 49.3363C107.332 49.7838 107.992 50.3063 108.564 50.9037L108.714 54.8611Z" fill="black"/>
<path d="M26.4487 61.9917C26.1752 62.116 25.9141 62.2776 25.6654 62.4765C25.4168 62.6754 25.2925 62.9493 25.2925 63.298V67.8904C24.097 69.6074 22.5659 70.939 20.6991 71.8851C18.8329 72.8306 16.7675 73.3034 14.5029 73.3034C12.5864 73.3034 10.7569 72.9922 9.01438 72.37C7.27255 71.7477 5.74207 70.8765 4.42294 69.7563C3.10381 68.6112 2.05852 67.2426 1.28707 65.6507C0.51561 64.0325 0.129883 62.2403 0.129883 60.274C0.129883 58.3084 0.515938 56.529 1.28805 54.9357C2.05885 53.3182 3.10381 51.9369 4.42294 50.7918C5.74207 49.6467 7.27255 48.7758 9.01438 48.1791C10.7569 47.5568 12.5864 47.2457 14.5029 47.2457C15.4235 47.2457 16.3442 47.3203 17.2648 47.4694C18.1861 47.6186 19.0695 47.8552 19.9149 48.1791C20.7864 48.4774 21.5955 48.8632 22.3421 49.3363C23.0887 49.7845 23.7483 50.307 24.3208 50.9037L24.471 54.8611L24.2462 54.9357C23.3759 53.0447 22.1317 51.5391 20.5136 50.4188C18.9203 49.2986 16.9167 48.7385 14.5029 48.7385C13.1589 48.7385 11.8771 49.0248 10.6574 49.5973C9.43838 50.145 8.36855 50.9289 7.44791 51.949C6.55148 52.9449 5.82943 54.1521 5.28175 55.5707C4.73408 56.9893 4.46024 58.5571 4.46024 60.274C4.46024 61.9661 4.72197 63.5215 5.24544 64.9401C5.79246 66.3593 6.51386 67.579 7.40963 68.5991C8.33093 69.5943 9.40109 70.3782 10.6201 70.9507C11.8398 71.4984 13.134 71.7722 14.5029 71.7722C17.0914 71.7722 19.3063 71.2746 21.1476 70.2794V63.298C21.1476 62.9499 21.0109 62.6761 20.7374 62.4765C20.4887 62.2776 20.2401 62.1156 19.9914 61.9907L20.0248 61.8042C20.1491 61.8271 20.3732 61.8519 20.6971 61.8788C21.021 61.9017 21.357 61.9265 21.7051 61.9534H24.9156C25.2146 61.9305 25.5009 61.9056 25.7744 61.8788C26.0479 61.8559 26.2592 61.831 26.4084 61.8042L26.4487 61.9917Z" fill="black"/>
<path d="M53.4886 48.029C53.24 48.1533 52.9913 48.3152 52.7427 48.5148C52.4934 48.7137 52.3563 49.087 52.3314 49.6347C52.3085 50.2321 52.2837 50.9911 52.2568 51.9117C52.2568 52.8082 52.2457 53.8289 52.2235 54.974C52.2235 56.1184 52.212 57.3626 52.1891 58.7066V62.8878C52.1662 64.5053 51.967 65.8866 51.5914 67.0317C51.2184 68.1768 50.7208 69.1347 50.0985 69.9055C49.5011 70.6776 48.8291 71.2874 48.0825 71.735C47.3608 72.1832 46.6391 72.5192 45.9174 72.743C45.2205 72.9916 44.5609 73.1412 43.9387 73.1915C43.3164 73.2661 42.8309 73.3034 42.4821 73.3034C41.0635 73.3034 39.6947 73.117 38.3756 72.744C37.0564 72.3952 35.8992 71.8227 34.904 71.0264C33.9088 70.2294 33.1125 69.1965 32.5151 67.9278C31.9177 66.6584 31.6189 65.1151 31.6189 63.2981V59.0796V55.1968C31.6189 54.0027 31.6075 52.9328 31.5846 51.9873C31.5846 51.0163 31.5731 50.2321 31.5502 49.6347C31.528 49.087 31.3912 48.714 31.14 48.5158C30.8913 48.3162 30.6427 48.1539 30.394 48.029L30.4274 47.8425C30.5517 47.8654 30.7513 47.8902 31.0261 47.9171C31.3245 47.94 31.6229 47.9648 31.9213 47.9916C32.2451 47.9916 32.5559 48.0031 32.8537 48.026H34.1983C34.4973 48.0031 34.8085 47.9916 35.1317 47.9916C35.4556 47.9687 35.7543 47.9439 36.0278 47.9171C36.3262 47.8941 36.5375 47.8693 36.6619 47.8425L36.6962 48.029C36.4227 48.1533 36.1613 48.3152 35.912 48.5148C35.6882 48.7137 35.5639 49.087 35.539 49.6347C35.5161 50.2321 35.4913 51.016 35.4644 51.9863V63.2981C35.4644 66.0109 36.0991 68.0145 37.3685 69.3088C38.6379 70.603 40.5169 71.2501 43.0053 71.2501C43.727 71.2501 44.5482 71.1628 45.4688 70.9881C46.3901 70.7892 47.2489 70.391 48.0453 69.7936C48.8664 69.1962 49.5509 68.3501 50.0985 67.2555C50.6711 66.1601 50.9573 64.7042 50.9573 62.8878C50.9573 60.9215 50.9459 59.2416 50.923 57.8478C50.923 56.4292 50.9115 55.222 50.8886 54.2261C50.8886 53.2054 50.8772 52.3344 50.8543 51.6134C50.832 50.8916 50.8072 50.2321 50.7797 49.6347C50.7574 49.087 50.6207 48.7137 50.3694 48.5148C50.1208 48.3159 49.8721 48.1539 49.6235 48.029L49.6569 47.8425C49.931 47.8922 50.2422 47.9423 50.5903 47.9926C50.939 48.0149 51.2629 48.026 51.5619 48.026C51.8348 48.026 52.1456 48.0149 52.4944 47.9926C52.8673 47.9429 53.1909 47.8929 53.4651 47.8425L53.4886 48.029Z" fill="black"/>
<path d="M80.5784 54.8611L80.3546 54.9357C79.483 53.044 78.2385 51.5381 76.621 50.4179C75.0284 49.2983 73.0248 48.7385 70.6103 48.7385C69.267 48.7385 67.9855 49.0248 66.7658 49.5973C65.5461 50.1443 64.476 50.9282 63.5553 51.949C62.6589 52.9442 61.9372 54.1515 61.3902 55.5707C60.8425 56.9886 60.5686 58.5564 60.5686 60.274C60.5686 61.991 60.8425 63.5588 61.3902 64.9774C61.9372 66.3959 62.6589 67.6156 63.5553 68.6364C64.476 69.6316 65.5458 70.4031 66.7648 70.9507C67.9851 71.4984 69.267 71.7722 70.6103 71.7722C72.9999 71.7722 74.9413 71.3989 76.4345 70.6524C77.9526 69.8802 79.2344 68.7103 80.28 67.1425L80.5038 67.2171L80.4292 69.6061C79.8567 70.2035 79.1971 70.7387 78.4505 71.2118C77.7046 71.66 76.8958 72.0461 76.0242 72.37C75.1782 72.6677 74.2949 72.8915 73.3742 73.0413C72.4529 73.2154 71.5319 73.3024 70.6113 73.3024C68.6941 73.3024 66.8646 72.9916 65.1228 72.37C63.381 71.7471 61.8505 70.8758 60.5313 69.7563C59.2122 68.6112 58.1669 67.2423 57.3955 65.6497C56.6234 64.0322 56.2373 62.2403 56.2373 60.274C56.2373 58.3078 56.6234 56.528 57.3955 54.9347C58.1676 53.3172 59.2129 51.9362 60.5313 50.7918C61.8505 49.6467 63.381 48.7755 65.1228 48.1781C66.8653 47.5565 68.6948 47.2457 70.6113 47.2457C71.5319 47.2457 72.4526 47.3199 73.3732 47.4685C74.2945 47.6183 75.1779 47.8548 76.0233 48.1781C76.8948 48.4771 77.7039 48.8632 78.4505 49.3363C79.1971 49.7838 79.8567 50.3063 80.4292 50.9037L80.5784 54.8611Z" fill="black"/>
<path d="M119.966 72.6674C119.841 72.6451 119.63 72.6206 119.332 72.5937C119.058 72.5937 118.759 72.5823 118.435 72.5594C118.112 72.5594 117.8 72.5483 117.502 72.526H115.263C114.964 72.5483 114.665 72.5728 114.366 72.5996C114.093 72.6225 113.881 72.6474 113.732 72.6742L113.698 72.525C113.946 72.4007 114.195 72.2388 114.444 72.0392C114.693 71.8403 114.83 71.467 114.855 70.9193C114.878 70.3219 114.889 69.6996 114.889 69.0525C114.912 68.4054 114.924 67.6712 114.924 66.85V64.0498V60.2799V56.509V53.6725C114.924 52.8506 114.912 52.1286 114.889 51.5063C114.889 50.8592 114.878 50.2373 114.855 49.6405C114.832 49.0928 114.695 48.7195 114.445 48.5206C114.196 48.2962 113.947 48.1218 113.699 47.9975L113.732 47.8483C113.881 47.898 114.093 47.9353 114.366 47.9602C114.665 47.9602 114.964 47.9716 115.262 47.9945C115.586 48.0174 115.897 48.0289 116.196 48.0289H117.502C117.8 48.006 118.111 47.9945 118.434 47.9945C118.759 47.9716 119.058 47.9468 119.332 47.9199C119.63 47.897 119.841 47.8722 119.966 47.8453L120 47.9955C119.726 48.1198 119.465 48.2939 119.216 48.5177C118.992 48.7166 118.868 49.0896 118.843 49.6366C118.82 50.2346 118.795 50.8572 118.768 51.5044V69.0506C118.791 69.697 118.816 70.319 118.843 70.9164C118.865 71.464 118.989 71.8373 119.216 72.0363C119.464 72.2352 119.726 72.3971 120 72.5221L119.966 72.6674Z" fill="black"/>
</svg>
