<svg width="788" height="156" viewBox="0 0 788 156" fill="none" xmlns="http://www.w3.org/2000/svg">
<path d="M69.4 153H2.8C0.4 153 0.4 150.4 2.8 150.2C16 149.6 19.2 144.4 20.2 128.2C22.2 96.2 22.4 56 20.8 24.6C20.2 14 19.6 7.19999 5.6 5.79999C3.2 5.59999 3.2 2.99999 5.6 2.99999H67.4C69.8 2.99999 69.8 5.59999 67.4 5.79999C53.4 7.19999 52.8 14 52.2 24.6C50.6 56 50.4 104.8 52 128C53 144.2 56.2 149.6 69.4 150.2C71.8 150.4 71.8 153 69.4 153ZM77.6188 153C74.4188 153 74.4188 149.4 77.6188 149.2C87.4188 148.6 92.0188 144.2 92.6188 127.8C93.2188 111.8 93.4188 88.6 93.0188 72.2C92.6188 62.2 89.4188 58.8 83.8188 57.6C82.4188 57.2 81.0188 57 79.4188 56.8C76.4188 56.4 75.8188 52.6 79.4188 52.4C89.6188 51.4 102.619 47.8 108.419 45.6C112.419 44.2 115.619 43.4 118.019 43.4C120.419 43.4 121.619 44.4 121.619 46.8C121.619 48.8 120.219 53.2 120.219 57.6C120.219 59.2 120.619 61 122.219 61C129.819 61 136.219 43.4 160.219 43.4C181.619 43.4 197.819 55.2 197.819 83.4C197.819 105.8 197.219 125.4 197.619 136.6C198.019 145.4 203.219 148 210.219 148.8C212.819 149.2 212.819 153 210.419 153H155.819C152.419 153 152.819 149.2 155.019 149C166.419 148 167.619 141 168.019 126.8C168.219 120.2 168.219 105.8 167.819 86C167.419 64.8 159.419 53.8 147.419 53.8C135.019 53.8 123.219 64.6 122.619 84.2C122.219 97.6 122.419 121.6 122.819 130.8C123.219 140.6 123.219 148 134.219 149C137.619 149.4 137.419 153 134.219 153H77.6188ZM278.105 155.2C245.905 155.2 218.505 134.2 218.505 100C218.505 65.2 246.505 43.4 278.505 43.4C300.305 43.4 325.305 60.8 325.505 80.8C325.505 85.6 322.705 93 313.705 95.6C302.505 98.6 293.905 92.6 292.305 80.6C289.505 60 287.105 48 272.305 48C259.105 48 249.905 67 249.905 87.4C249.905 119.6 264.705 140.8 293.905 140.8C304.305 140.8 312.105 139.6 316.705 137.4C318.705 136.4 319.305 137.8 318.105 139C307.705 149 293.505 155.2 278.105 155.2ZM366.469 155.4C349.869 155.4 337.669 145.8 337.669 129.4C337.669 120.6 341.469 110.8 359.869 101.8C368.469 97.6 384.669 93.2 401.469 89.4C404.069 88.8 404.869 87.6 404.869 85.2V67.6C404.869 52.2 402.269 46.8 394.869 46.8C386.669 46.8 380.869 52 375.469 68C370.869 81.6 364.269 90.2 352.069 90.2C344.069 90.2 339.269 85.2 339.269 78.4C339.269 65.8 358.069 55.4 371.869 49.2C378.669 46.2 388.069 43.4 401.269 43.4C419.269 43.4 434.669 52.2 434.669 73.2V133.8C434.669 138.4 436.069 141 439.069 141.8C442.069 142.6 446.069 141 448.669 139.2C449.469 138.6 450.069 139.4 449.669 140.2C446.469 146.4 439.469 153.6 426.669 153.6C420.069 153.6 409.669 151.2 406.269 139.8C405.669 138 404.869 137.8 403.669 138.8C395.069 146.4 381.269 155.4 366.469 155.4ZM385.669 142.8C391.669 142.6 397.669 140 402.069 135.6C404.469 133.2 404.869 130.6 404.869 128V94.8C404.869 93 404.469 92 402.069 92.6C397.669 93.8 391.869 95.8 387.869 97.6C375.469 103.2 369.669 113.2 369.669 125.2C369.669 139.2 378.669 143 385.669 142.8ZM451.591 153C448.591 153 448.591 149.4 451.591 149.2C463.191 148.6 466.191 143.8 466.791 127.8C467.991 99.2 467.391 45.4 467.391 29C467.391 21.2 467.191 16.4 462.391 14.4C459.991 13.4 455.991 12.8 453.591 12.4C450.791 11.8 450.591 8 454.191 8C465.191 7.39999 470.991 6.59999 478.391 4.2C484.791 1.99999 486.591 0.199988 492.391 0.199988C495.991 0.199988 497.991 1.79999 497.991 6.59999C497.991 33.4 496.791 53 496.791 88.2C496.791 100.8 496.791 123.8 496.991 130.8C497.391 141 498.191 147.6 512.591 149C515.991 149.4 515.991 153 512.591 153H451.591ZM602.945 153H566.345C564.145 153 564.145 151.2 566.345 150.4C576.145 147.2 581.545 137.8 585.345 129C598.945 97.8 608.745 66 620.145 30.4C621.545 26 621.545 23.2 620.945 20.6C620.545 19 621.145 17.2 622.745 16.2C630.945 11.4 637.745 6.8 643.745 1.99999C645.745 0.399998 647.145 0.99999 648.145 3.39999C668.545 57.4 682.945 98 693.945 122.8C701.545 140 707.545 149.4 712.745 150.4C715.145 150.8 715.145 153 712.745 153H647.945C645.745 153 645.545 150.4 647.945 150.2C661.945 148.8 666.945 142.6 663.545 132.6C660.745 124.2 657.545 116.6 654.745 110C653.545 107.2 652.145 105.8 646.745 105.6C634.945 105.4 620.345 105.4 605.545 105.8C602.745 105.8 601.145 107.2 599.945 110.4C595.745 122.4 592.945 133 592.945 137.8C592.945 144 596.345 148.8 602.945 150.2C605.545 150.8 605.345 153 602.945 153ZM606.945 101.2C620.545 101.6 633.945 101.6 646.545 101.2C650.345 101.2 651.145 100.2 649.945 96.6C643.545 78.4 635.945 58.6 627.945 39C627.145 37.2 624.545 36.2 623.545 39.2C617.745 55.2 610.145 77.2 604.145 97.2C603.345 100 603.945 101.2 606.945 101.2ZM784.634 153H718.034C715.634 153 715.634 150.4 718.034 150.2C731.234 149.6 734.434 144.4 735.434 128.2C737.434 96.2 737.634 56 736.034 24.6C735.434 14 734.834 7.19999 720.834 5.79999C718.434 5.59999 718.434 2.99999 720.834 2.99999H782.634C785.034 2.99999 785.034 5.59999 782.634 5.79999C768.634 7.19999 768.034 14 767.434 24.6C765.834 56 765.634 104.8 767.234 128C768.234 144.2 771.434 149.6 784.634 150.2C787.034 150.4 787.034 153 784.634 153Z" fill="#AC8E68"/>
</svg>
