<svg width="120" height="120" viewBox="0 0 120 120" fill="none" xmlns="http://www.w3.org/2000/svg">
<path d="M59.3125 98.0781C38.2578 98.0781 20.9922 80.8125 20.9922 59.7969C20.9922 38.7422 38.2578 21.4766 59.2734 21.4766C80.3281 21.4766 97.5938 38.7422 97.5938 59.7969C97.5938 80.8125 80.3281 98.0781 59.3125 98.0781ZM59.3125 95.1094C78.8047 95.1094 94.625 79.2891 94.625 59.7969C94.625 40.3047 78.8047 24.4453 59.2734 24.4453C39.7812 24.4453 23.9609 40.3047 23.9609 59.7969C23.9609 79.2891 39.7812 95.1094 59.3125 95.1094ZM47.2031 78.2344C43.4922 78.2344 41.5391 76.2812 41.5391 72.6094V50.3438C41.5391 46.6328 43.4922 44.7578 47.2031 44.7578H51.5C51.5781 41.0078 54.5078 37.4531 59.3125 37.4531C64.0781 37.4531 67.0469 41.0078 67.0859 44.7578H71.3828C75.1328 44.7578 77.0859 46.7109 77.0859 50.3438V72.6094C77.0859 76.2422 75.1328 78.2344 71.5391 78.2344H47.2031ZM53.6875 44.7578H64.9375C64.8594 41.4766 62.75 39.4844 59.3125 39.4844C55.8359 39.4844 53.7266 41.4766 53.6875 44.7578Z" fill="#AC8E68"/>
</svg>
