<svg width="120" height="120" viewBox="0 0 120 120" fill="none" xmlns="http://www.w3.org/2000/svg">
<path d="M59.3125 98.0781C38.2578 98.0781 20.9922 80.8125 20.9922 59.7969C20.9922 38.7422 38.2578 21.4766 59.2734 21.4766C80.3281 21.4766 97.5938 38.7422 97.5938 59.7969C97.5938 80.8125 80.3281 98.0781 59.3125 98.0781ZM59.3125 95.1094C78.8047 95.1094 94.625 79.2891 94.625 59.7969C94.625 40.3047 78.8047 24.4453 59.2734 24.4453C39.7812 24.4453 23.9609 40.3047 23.9609 59.7969C23.9609 79.2891 39.7812 95.1094 59.3125 95.1094ZM36.6953 52.2969V45.7734C36.6953 42.6484 38.2578 41.125 41.3047 41.125H47.2422C49.2734 41.125 49.9766 41.3594 51.3047 42.5312L52.3984 43.5469C53.4531 44.5234 54.1953 44.7578 55.9922 44.7578H76.5C80.0156 44.7578 81.8906 46.6719 81.8906 50.1094V52.2969H36.6953ZM42.0859 77.4531C38.6094 77.4531 36.6953 75.6562 36.6953 72.1406V54.5234H81.8906V72.1406C81.8906 75.6172 80.0156 77.4531 76.6172 77.4531H42.0859Z" fill="#AC8E68"/>
</svg>
