<svg width="120" height="120" viewBox="0 0 120 120" fill="none" xmlns="http://www.w3.org/2000/svg">
<g clip-path="url(#clip0_9_184)">
<path d="M59.6504 38.0618C60.87 38.0618 61.8819 37.0498 61.8819 35.8303C61.8819 34.6107 60.87 33.5987 59.6504 33.5987C58.4309 33.5987 57.4189 34.6107 57.4189 35.8303C57.4189 37.0498 58.4309 38.0618 59.6504 38.0618ZM67.0718 39.2814C68.2914 39.2814 69.3032 38.2694 69.3032 37.0498C69.3032 35.8303 68.2914 34.8183 67.0718 34.8183C65.8522 34.8183 64.8401 35.8303 64.8401 37.0498C64.8401 38.2694 65.8522 39.2814 67.0718 39.2814ZM73.8182 42.6807C75.0378 42.6807 76.0499 41.6687 76.0499 40.4491C76.0499 39.2295 75.0378 38.2175 73.8182 38.2175C72.5989 38.2175 71.5868 39.2295 71.5868 40.4491C71.5868 41.6687 72.5989 42.6807 73.8182 42.6807ZM79.1378 48.0261C80.3574 48.0261 81.3692 47.0141 81.3692 45.7945C81.3692 44.5749 80.3574 43.5629 79.1378 43.5629C77.9182 43.5629 76.9061 44.5749 76.9061 45.7945C76.9061 47.0141 77.9182 48.0261 79.1378 48.0261ZM82.5371 54.6689C83.7567 54.6689 84.7685 53.6569 84.7685 52.4373C84.7685 51.2177 83.7567 50.2057 82.5371 50.2057C81.3174 50.2057 80.3053 51.2177 80.3053 52.4373C80.3053 53.6569 81.3174 54.6689 82.5371 54.6689ZM83.8085 62.116C85.0281 62.116 86.0399 61.1042 86.0399 59.8845C86.0399 58.6649 85.0281 57.6529 83.8085 57.6529C82.5889 57.6529 81.577 58.6649 81.577 59.8845C81.577 61.1042 82.5889 62.116 83.8085 62.116ZM82.5371 69.5634C83.7567 69.5634 84.7685 68.5513 84.7685 67.3317C84.7685 66.1121 83.7567 65.1003 82.5371 65.1003C81.3174 65.1003 80.3053 66.1121 80.3053 67.3317C80.3053 68.5513 81.3174 69.5634 82.5371 69.5634ZM79.1378 76.232C80.3574 76.232 81.3692 75.2202 81.3692 74.0006C81.3692 72.7809 80.3574 71.7688 79.1378 71.7688C77.9182 71.7688 76.9061 72.7809 76.9061 74.0006C76.9061 75.2202 77.9182 76.232 79.1378 76.232ZM73.8182 81.5516C75.0378 81.5516 76.0499 80.5395 76.0499 79.3199C76.0499 78.1003 75.0378 77.0884 73.8182 77.0884C72.5989 77.0884 71.5868 78.1003 71.5868 79.3199C71.5868 80.5395 72.5989 81.5516 73.8182 81.5516ZM67.0718 84.9509C68.2914 84.9509 69.3032 83.9388 69.3032 82.7191C69.3032 81.4995 68.2914 80.4877 67.0718 80.4877C65.8522 80.4877 64.8401 81.4995 64.8401 82.7191C64.8401 83.9388 65.8522 84.9509 67.0718 84.9509ZM59.6504 86.1705C60.87 86.1705 61.8819 85.1584 61.8819 83.9388C61.8819 82.7191 60.87 81.7073 59.6504 81.7073C58.4309 81.7073 57.4189 82.7191 57.4189 83.9388C57.4189 85.1584 58.4309 86.1705 59.6504 86.1705ZM52.2292 84.9509C53.4487 84.9509 54.4607 83.9388 54.4607 82.7191C54.4607 81.4995 53.4487 80.4877 52.2292 80.4877C50.9836 80.4877 49.9976 81.4995 49.9976 82.7191C49.9976 83.9388 50.9836 84.9509 52.2292 84.9509ZM45.4826 81.5516C46.7021 81.5516 47.7141 80.5395 47.7141 79.3199C47.7141 78.1003 46.7021 77.0884 45.4826 77.0884C44.237 77.0884 43.251 78.1003 43.251 79.3199C43.251 80.5395 44.237 81.5516 45.4826 81.5516ZM40.1372 76.232C41.3567 76.232 42.3687 75.2202 42.3687 74.0006C42.3687 72.7809 41.3567 71.7688 40.1372 71.7688C38.9176 71.7688 37.9056 72.7809 37.9056 74.0006C37.9056 75.2202 38.9176 76.232 40.1372 76.232ZM36.7379 69.5634C37.9575 69.5634 38.9695 68.5513 38.9695 67.3317C38.9695 66.1121 37.9575 65.1003 36.7379 65.1003C35.5183 65.1003 34.5063 66.1121 34.5063 67.3317C34.5063 68.5513 35.5183 69.5634 36.7379 69.5634ZM35.4664 62.116C36.686 62.116 37.698 61.1042 37.698 59.8845C37.698 58.6649 36.686 57.6529 35.4664 57.6529C34.2469 57.6529 33.2349 58.6649 33.2349 59.8845C33.2349 61.1042 34.2469 62.116 35.4664 62.116ZM36.7379 54.6689C37.9575 54.6689 38.9695 53.6569 38.9695 52.4373C38.9695 51.2177 37.9575 50.2057 36.7379 50.2057C35.5183 50.2057 34.5063 51.2177 34.5063 52.4373C34.5063 53.6569 35.5183 54.6689 36.7379 54.6689ZM40.1372 48.0261C41.3567 48.0261 42.3687 47.0141 42.3687 45.7945C42.3687 44.5749 41.3567 43.5629 40.1372 43.5629C38.9176 43.5629 37.9056 44.5749 37.9056 45.7945C37.9056 47.0141 38.9176 48.0261 40.1372 48.0261ZM45.4826 42.6807C46.7021 42.6807 47.7141 41.6687 47.7141 40.4491C47.7141 39.2295 46.7021 38.2175 45.4826 38.2175C44.237 38.2175 43.251 39.2295 43.251 40.4491C43.251 41.6687 44.237 42.6807 45.4826 42.6807ZM52.2292 39.2814C53.4487 39.2814 54.4607 38.2694 54.4607 37.0498C54.4607 35.8303 53.4487 34.8183 52.2292 34.8183C50.9836 34.8183 49.9976 35.8303 49.9976 37.0498C49.9976 38.2694 50.9836 39.2814 52.2292 39.2814Z" fill="white" fill-opacity="0.23" style="mix-blend-mode:lighten"/>
<path d="M59.6504 38.0618C60.87 38.0618 61.8819 37.0498 61.8819 35.8303C61.8819 34.6107 60.87 33.5987 59.6504 33.5987C58.4309 33.5987 57.4189 34.6107 57.4189 35.8303C57.4189 37.0498 58.4309 38.0618 59.6504 38.0618ZM67.0718 39.2814C68.2914 39.2814 69.3032 38.2694 69.3032 37.0498C69.3032 35.8303 68.2914 34.8183 67.0718 34.8183C65.8522 34.8183 64.8401 35.8303 64.8401 37.0498C64.8401 38.2694 65.8522 39.2814 67.0718 39.2814ZM73.8182 42.6807C75.0378 42.6807 76.0499 41.6687 76.0499 40.4491C76.0499 39.2295 75.0378 38.2175 73.8182 38.2175C72.5989 38.2175 71.5868 39.2295 71.5868 40.4491C71.5868 41.6687 72.5989 42.6807 73.8182 42.6807ZM79.1378 48.0261C80.3574 48.0261 81.3692 47.0141 81.3692 45.7945C81.3692 44.5749 80.3574 43.5629 79.1378 43.5629C77.9182 43.5629 76.9061 44.5749 76.9061 45.7945C76.9061 47.0141 77.9182 48.0261 79.1378 48.0261ZM82.5371 54.6689C83.7567 54.6689 84.7685 53.6569 84.7685 52.4373C84.7685 51.2177 83.7567 50.2057 82.5371 50.2057C81.3174 50.2057 80.3053 51.2177 80.3053 52.4373C80.3053 53.6569 81.3174 54.6689 82.5371 54.6689ZM83.8085 62.116C85.0281 62.116 86.0399 61.1042 86.0399 59.8845C86.0399 58.6649 85.0281 57.6529 83.8085 57.6529C82.5889 57.6529 81.577 58.6649 81.577 59.8845C81.577 61.1042 82.5889 62.116 83.8085 62.116ZM82.5371 69.5634C83.7567 69.5634 84.7685 68.5513 84.7685 67.3317C84.7685 66.1121 83.7567 65.1003 82.5371 65.1003C81.3174 65.1003 80.3053 66.1121 80.3053 67.3317C80.3053 68.5513 81.3174 69.5634 82.5371 69.5634ZM79.1378 76.232C80.3574 76.232 81.3692 75.2202 81.3692 74.0006C81.3692 72.7809 80.3574 71.7688 79.1378 71.7688C77.9182 71.7688 76.9061 72.7809 76.9061 74.0006C76.9061 75.2202 77.9182 76.232 79.1378 76.232ZM73.8182 81.5516C75.0378 81.5516 76.0499 80.5395 76.0499 79.3199C76.0499 78.1003 75.0378 77.0884 73.8182 77.0884C72.5989 77.0884 71.5868 78.1003 71.5868 79.3199C71.5868 80.5395 72.5989 81.5516 73.8182 81.5516ZM67.0718 84.9509C68.2914 84.9509 69.3032 83.9388 69.3032 82.7191C69.3032 81.4995 68.2914 80.4877 67.0718 80.4877C65.8522 80.4877 64.8401 81.4995 64.8401 82.7191C64.8401 83.9388 65.8522 84.9509 67.0718 84.9509ZM59.6504 86.1705C60.87 86.1705 61.8819 85.1584 61.8819 83.9388C61.8819 82.7191 60.87 81.7073 59.6504 81.7073C58.4309 81.7073 57.4189 82.7191 57.4189 83.9388C57.4189 85.1584 58.4309 86.1705 59.6504 86.1705ZM52.2292 84.9509C53.4487 84.9509 54.4607 83.9388 54.4607 82.7191C54.4607 81.4995 53.4487 80.4877 52.2292 80.4877C50.9836 80.4877 49.9976 81.4995 49.9976 82.7191C49.9976 83.9388 50.9836 84.9509 52.2292 84.9509ZM45.4826 81.5516C46.7021 81.5516 47.7141 80.5395 47.7141 79.3199C47.7141 78.1003 46.7021 77.0884 45.4826 77.0884C44.237 77.0884 43.251 78.1003 43.251 79.3199C43.251 80.5395 44.237 81.5516 45.4826 81.5516ZM40.1372 76.232C41.3567 76.232 42.3687 75.2202 42.3687 74.0006C42.3687 72.7809 41.3567 71.7688 40.1372 71.7688C38.9176 71.7688 37.9056 72.7809 37.9056 74.0006C37.9056 75.2202 38.9176 76.232 40.1372 76.232ZM36.7379 69.5634C37.9575 69.5634 38.9695 68.5513 38.9695 67.3317C38.9695 66.1121 37.9575 65.1003 36.7379 65.1003C35.5183 65.1003 34.5063 66.1121 34.5063 67.3317C34.5063 68.5513 35.5183 69.5634 36.7379 69.5634ZM35.4664 62.116C36.686 62.116 37.698 61.1042 37.698 59.8845C37.698 58.6649 36.686 57.6529 35.4664 57.6529C34.2469 57.6529 33.2349 58.6649 33.2349 59.8845C33.2349 61.1042 34.2469 62.116 35.4664 62.116ZM36.7379 54.6689C37.9575 54.6689 38.9695 53.6569 38.9695 52.4373C38.9695 51.2177 37.9575 50.2057 36.7379 50.2057C35.5183 50.2057 34.5063 51.2177 34.5063 52.4373C34.5063 53.6569 35.5183 54.6689 36.7379 54.6689ZM40.1372 48.0261C41.3567 48.0261 42.3687 47.0141 42.3687 45.7945C42.3687 44.5749 41.3567 43.5629 40.1372 43.5629C38.9176 43.5629 37.9056 44.5749 37.9056 45.7945C37.9056 47.0141 38.9176 48.0261 40.1372 48.0261ZM45.4826 42.6807C46.7021 42.6807 47.7141 41.6687 47.7141 40.4491C47.7141 39.2295 46.7021 38.2175 45.4826 38.2175C44.237 38.2175 43.251 39.2295 43.251 40.4491C43.251 41.6687 44.237 42.6807 45.4826 42.6807ZM52.2292 39.2814C53.4487 39.2814 54.4607 38.2694 54.4607 37.0498C54.4607 35.8303 53.4487 34.8183 52.2292 34.8183C50.9836 34.8183 49.9976 35.8303 49.9976 37.0498C49.9976 38.2694 50.9836 39.2814 52.2292 39.2814Z" fill="#545454" style="mix-blend-mode:color-dodge"/>
<path d="M50.2568 70.1082C50.2568 72.0545 51.1131 72.9627 52.9295 72.9627H66.3708C68.1612 72.9627 69.0176 72.0545 69.0176 70.1082V59.7808C69.0176 57.9644 68.2651 57.0821 66.7341 56.9783V53.8905C66.7341 49.1159 63.8798 45.9243 59.6502 45.9243C55.4206 45.9243 52.5663 49.1159 52.5663 53.8905V56.9783C51.0093 57.0821 50.2568 57.9644 50.2568 59.7808V70.1082ZM55.2649 56.9524V53.605C55.2649 50.569 57.0034 48.5451 59.6502 48.5451C62.2709 48.5451 64.0355 50.569 64.0355 53.605V56.9524H55.2649Z" fill="white" fill-opacity="0.23" style="mix-blend-mode:lighten"/>
<path d="M50.2568 70.1082C50.2568 72.0545 51.1131 72.9627 52.9295 72.9627H66.3708C68.1612 72.9627 69.0176 72.0545 69.0176 70.1082V59.7808C69.0176 57.9644 68.2651 57.0821 66.7341 56.9783V53.8905C66.7341 49.1159 63.8798 45.9243 59.6502 45.9243C55.4206 45.9243 52.5663 49.1159 52.5663 53.8905V56.9783C51.0093 57.0821 50.2568 57.9644 50.2568 59.7808V70.1082ZM55.2649 56.9524V53.605C55.2649 50.569 57.0034 48.5451 59.6502 48.5451C62.2709 48.5451 64.0355 50.569 64.0355 53.605V56.9524H55.2649Z" fill="#545454" style="mix-blend-mode:color-dodge"/>
</g>
<defs>
<clipPath id="clip0_9_184">
<rect width="53.7654" height="52.5976" fill="white" transform="translate(33.2349 33.5987)"/>
</clipPath>
</defs>
</svg>
