<svg width="120" height="120" viewBox="0 0 120 120" fill="none" xmlns="http://www.w3.org/2000/svg">
<path d="M20.9922 59.875C20.9922 46.0469 28.4531 33.8984 39.5859 27.1406C40.3672 26.5938 41.3047 26.8281 41.6953 27.5312C42.0859 28.2734 41.8906 29.1328 41.1484 29.6016C30.875 35.8125 23.9609 47.0234 23.9609 59.875C23.9609 79.3672 39.7812 95.1875 59.3125 95.1875C78.8047 95.1875 94.625 79.3672 94.625 59.875C94.625 42.6875 82.3203 28.3516 66.0312 25.1875V32.6484C66.0312 34.25 64.9375 34.7969 63.5312 33.7812L51.7734 25.5781C50.6016 24.7578 50.6016 23.6641 51.7734 22.8438L63.5312 14.6406C64.9375 13.625 66.0312 14.1719 66.0312 15.7344V22.1406C83.8828 25.3828 97.5938 41.1641 97.5938 59.875C97.5938 80.9297 80.3281 98.1953 59.3125 98.1953C38.2578 98.1953 20.9922 80.9297 20.9922 59.875ZM50.1719 75.4609C49.2344 75.4609 48.6875 74.7969 48.6875 73.8984V48.1562L43.2578 52.1797C42.9844 52.375 42.7109 52.4531 42.3984 52.4531C41.7344 52.4531 41.2266 51.9062 41.2266 51.2812C41.2266 50.6953 41.5391 50.3047 41.9688 49.9922L48.0625 45.5781C48.6875 45.1094 49.2344 44.7969 50.0156 44.7969C51.0312 44.7969 51.6172 45.3438 51.6172 46.3594V73.8984C51.6172 74.7578 51.0703 75.4609 50.1719 75.4609ZM67.9453 75.6562C63.9219 75.6562 60.25 73.2734 59.1562 69.4453C59.0781 69.0547 58.9609 68.625 58.9609 68.2734C58.9609 67.4531 59.4688 66.9453 60.25 66.9453C60.875 66.9453 61.3438 67.375 61.6172 68.1562C62.3594 70.9688 64.7031 73.1172 67.9844 73.1172C72.2422 73.1172 74.6641 69.5234 74.6641 65.4609C74.6641 61.3594 72.1641 57.9219 68.1406 57.9219C65.875 57.9219 63.8828 59.0547 62.5938 60.9297C62.125 61.4766 61.6953 62.0625 60.8359 62.0625C59.8984 62.0625 59.3516 61.3594 59.4297 60.3047L60.6406 47.1016C60.7578 45.7734 61.3828 45.1484 62.7109 45.1484H74.7031C75.4453 45.1484 75.9922 45.6562 75.9922 46.4375C75.9922 47.1797 75.4453 47.7266 74.7031 47.7266H63.1797L62.0859 59.0547H62.125C63.4922 56.7891 66.0312 55.5 68.7656 55.5C74.1172 55.5 77.5156 59.9531 77.5156 65.3828C77.5156 71.2031 73.8047 75.6562 67.9453 75.6562Z" fill="#AC8E68"/>
</svg>
