<svg width="1535" height="185" viewBox="0 0 1535 185" fill="none" xmlns="http://www.w3.org/2000/svg">
<path d="M1399.22 140.083V45.283C1399.22 19.683 1417.82 1.08301 1443.42 1.08301H1490.42C1516.02 1.08301 1534.62 19.683 1534.62 45.283V140.083C1534.62 165.683 1516.02 184.283 1490.42 184.283H1443.42C1417.82 184.283 1399.22 165.683 1399.22 140.083Z" fill="#D9C3B0"/>
<path d="M1243.75 140.083V45.283C1243.75 19.683 1262.35 1.08301 1287.95 1.08301H1334.95C1360.55 1.08301 1379.15 19.683 1379.15 45.283V140.083C1379.15 165.683 1360.55 184.283 1334.95 184.283H1287.95C1262.35 184.283 1243.75 165.683 1243.75 140.083Z" fill="#D9C3B0"/>
<path d="M1088.28 140.083V45.283C1088.28 19.683 1106.88 1.08301 1132.48 1.08301H1179.48C1205.08 1.08301 1223.68 19.683 1223.68 45.283V140.083C1223.68 165.683 1205.08 184.283 1179.48 184.283H1132.48C1106.88 184.283 1088.28 165.683 1088.28 140.083Z" fill="#D9C3B0"/>
<path d="M932.812 140.083V45.283C932.812 19.683 951.413 1.08301 977.013 1.08301H1024.01C1049.61 1.08301 1068.21 19.683 1068.21 45.283V140.083C1068.21 165.683 1049.61 184.283 1024.01 184.283H977.013C951.413 184.283 932.812 165.683 932.812 140.083Z" fill="#D9C3B0"/>
<path d="M777.344 140.083V45.283C777.344 19.683 795.944 1.08301 821.544 1.08301H868.544C894.144 1.08301 912.744 19.683 912.744 45.283V140.083C912.744 165.683 894.144 184.283 868.544 184.283H821.544C795.944 184.283 777.344 165.683 777.344 140.083Z" fill="#D9C3B0"/>
<path d="M621.875 140.083V45.283C621.875 19.683 640.475 1.08301 666.075 1.08301H713.075C738.675 1.08301 757.275 19.683 757.275 45.283V140.083C757.275 165.683 738.675 184.283 713.075 184.283H666.075C640.475 184.283 621.875 165.683 621.875 140.083Z" fill="#D9C3B0"/>
<path d="M466.406 140.083V45.283C466.406 19.683 485.006 1.08301 510.606 1.08301H557.606C583.206 1.08301 601.806 19.683 601.806 45.283V140.083C601.806 165.683 583.206 184.283 557.606 184.283H510.606C485.006 184.283 466.406 165.683 466.406 140.083Z" fill="#D9C3B0"/>
<path d="M310.938 140.083V45.283C310.938 19.683 329.538 1.08301 355.138 1.08301H402.138C427.738 1.08301 446.338 19.683 446.338 45.283V140.083C446.338 165.683 427.738 184.283 402.138 184.283H355.138C329.538 184.283 310.938 165.683 310.938 140.083Z" fill="#D9C3B0"/>
<path d="M155.469 140.083V45.283C155.469 19.683 174.069 1.08301 199.669 1.08301H246.669C272.269 1.08301 290.869 19.683 290.869 45.283V140.083C290.869 165.683 272.269 184.283 246.669 184.283H199.669C174.069 184.283 155.469 165.683 155.469 140.083Z" fill="#D9C3B0"/>
<path d="M0 140.083V45.283C0 19.683 18.6 1.08301 44.2 1.08301H91.2C116.8 1.08301 135.4 19.683 135.4 45.283V140.083C135.4 165.683 116.8 184.283 91.2 184.283H44.2C18.6 184.283 0 165.683 0 140.083Z" fill="#D9C3B0"/>
<path d="M1399.51 45.0001C1399.51 19.4 1418.11 0.800049 1443.71 0.800049H1490.71C1516.31 0.800049 1534.91 19.4 1534.91 45.0001V139.8C1534.91 165.4 1516.31 184 1490.71 184H1443.71C1418.11 184 1399.51 165.4 1399.51 139.8V45.0001ZM1421.51 145.6C1421.51 152.4 1427.31 158 1434.31 158H1454.11C1491.51 158 1518.71 130.2 1518.71 92.6C1518.71 52.2 1493.71 25 1456.71 25H1434.31C1427.31 25 1421.51 30.2 1421.51 37.0001V145.6ZM1447.11 48.2001H1454.11C1479.91 48.2001 1493.11 63.2 1493.11 92.6C1493.11 118 1477.51 134.8 1454.11 134.8H1447.11V48.2001Z" fill="#3B4B59"/>
<path d="M1244.04 45.0001C1244.04 19.4 1262.64 0.800049 1288.24 0.800049H1335.24C1360.84 0.800049 1379.44 19.4 1379.44 45.0001V139.8C1379.44 165.4 1360.84 184 1335.24 184H1288.24C1262.64 184 1244.04 165.4 1244.04 139.8V45.0001ZM1267.04 146.8C1267.04 153.6 1272.84 159.2 1279.84 159.2C1286.24 159.2 1291.64 153.6 1291.64 146.8V105.2H1299.44C1308.24 105.2 1310.84 106.6 1315.04 114.4L1336.44 153.6C1338.44 157.4 1342.64 159.2 1347.64 159.2C1354.44 159.2 1360.24 154.4 1360.24 147.8C1360.24 145.6 1359.24 143.2 1357.64 140L1336.84 101.2C1353.24 95 1363.24 81.8001 1363.24 64.6001C1363.24 39.8 1345.24 25 1315.24 25H1279.84C1272.84 25 1267.04 30.4001 1267.04 37.2001V146.8ZM1291.64 48.2001H1314.64C1330.44 48.2001 1337.04 53.2 1337.04 64.6001C1337.04 75.4001 1330.24 82.6001 1320.24 82.6001H1291.64V48.2001Z" fill="#3B4B59"/>
<path d="M1088.57 45.0001C1088.57 19.4 1107.17 0.800049 1132.77 0.800049H1179.77C1205.37 0.800049 1223.97 19.4 1223.97 45.0001V139.8C1223.97 165.4 1205.37 184 1179.77 184H1132.77C1107.17 184 1088.57 165.4 1088.57 139.8V45.0001ZM1100.57 142.8C1096.77 153 1104.17 159.4 1111.77 159.4C1116.37 159.4 1121.17 156.8 1123.17 151.2L1133.57 121.4H1179.37L1189.77 151C1191.77 156.6 1196.77 159.2 1201.57 159.2C1208.97 159.2 1216.37 153 1212.37 142.6L1173.17 39C1169.57 29.2 1164.57 24.2001 1156.97 24.2001C1148.77 24.2001 1142.97 29.4001 1139.37 39L1100.57 142.8ZM1156.37 55.2001L1171.57 99.0001H1141.17L1156.37 55.2001Z" fill="#3B4B59"/>
<path d="M933.104 45.0001C933.104 19.4 951.704 0.800049 977.304 0.800049H1024.3C1049.9 0.800049 1068.5 19.4 1068.5 45.0001V139.8C1068.5 165.4 1049.9 184 1024.3 184H977.304C951.704 184 933.104 165.4 933.104 139.8V45.0001ZM1000.3 159.4C1032.3 159.4 1052.5 130.6 1052.5 91.2001C1052.5 52.4001 1032.3 23.6 1000.3 23.6C968.104 23.6 948.104 52.4001 948.104 91.2001C948.104 130.6 968.104 159.4 1000.3 159.4ZM1000.3 136.2C983.104 136.2 974.304 117.6 974.304 91.2001C974.304 65.4 983.104 46.8 1000.3 46.8C1017.3 46.8 1026.3 65.4 1026.3 91.2001C1026.3 117.6 1017.3 136.2 1000.3 136.2Z" fill="#3B4B59"/>
<path d="M777.635 45.0001C777.635 19.4 796.235 0.800049 821.835 0.800049H868.835C894.435 0.800049 913.035 19.4 913.035 45.0001V139.8C913.035 165.4 894.435 184 868.835 184H821.835C796.235 184 777.635 165.4 777.635 139.8V45.0001ZM801.635 145.6C801.635 152.4 807.435 158 814.435 158H840.235C876.035 158 896.835 142.2 896.835 116.8C896.835 102.8 890.435 92.8001 878.435 86.2001C886.235 80.0001 890.435 71.8001 890.435 61.2001C890.435 39 873.035 25 844.035 25H814.435C807.435 25 801.635 30.4001 801.635 37.2001V145.6ZM825.635 48.0001H844.035C859.235 48.0001 865.235 52.2 865.235 61.8C865.235 70.8001 859.435 75.6 849.635 75.6H825.635V48.0001ZM825.635 98.2001H840.235C863.235 98.2001 871.635 103 871.635 115.8C871.635 129 862.835 135 840.235 135H825.635V98.2001Z" fill="#3B4B59"/>
<path d="M622.166 45.0001C622.166 19.4 640.766 0.800049 666.366 0.800049H713.366C738.966 0.800049 757.566 19.4 757.566 45.0001V139.8C757.566 165.4 738.966 184 713.366 184H666.366C640.766 184 622.166 165.4 622.166 139.8V45.0001ZM740.566 40.8C745.366 32.6 738.566 23.6 728.966 23.6C723.766 23.6 720.166 26.0001 717.366 30.8L689.566 80.4L661.566 30.8C658.966 26.2 654.766 23.6 649.966 23.6C639.966 23.6 633.366 32.4 638.366 41L673.966 101.4C675.766 104.4 676.566 105.6 676.566 107.8V147C676.566 153.8 682.366 159.4 689.366 159.4C696.366 159.4 702.166 153.8 702.166 147V107.8C702.166 105.6 702.966 104.4 704.766 101.4L740.566 40.8Z" fill="#3B4B59"/>
<path d="M466.697 45.0001C466.697 19.4 485.297 0.800049 510.897 0.800049H557.897C583.497 0.800049 602.097 19.4 602.097 45.0001V139.8C602.097 165.4 583.497 184 557.897 184H510.897C485.297 184 466.697 165.4 466.697 139.8V45.0001ZM489.697 146.8C489.697 153.6 495.497 159.2 502.497 159.2C508.897 159.2 514.297 153.6 514.297 146.8V105.2H522.097C530.897 105.2 533.497 106.6 537.697 114.4L559.097 153.6C561.097 157.4 565.297 159.2 570.297 159.2C577.097 159.2 582.897 154.4 582.897 147.8C582.897 145.6 581.897 143.2 580.297 140L559.497 101.2C575.897 95 585.897 81.8001 585.897 64.6001C585.897 39.8 567.897 25 537.897 25H502.497C495.497 25 489.697 30.4001 489.697 37.2001V146.8ZM514.297 48.2001H537.297C553.097 48.2001 559.697 53.2 559.697 64.6001C559.697 75.4001 552.897 82.6001 542.897 82.6001H514.297V48.2001Z" fill="#3B4B59"/>
<path d="M311.229 45.0001C311.229 19.4 329.829 0.800049 355.429 0.800049H402.429C428.029 0.800049 446.629 19.4 446.629 45.0001V139.8C446.629 165.4 428.029 184 402.429 184H355.429C329.829 184 311.229 165.4 311.229 139.8V45.0001ZM378.429 159.4C410.429 159.4 430.629 130.6 430.629 91.2001C430.629 52.4001 410.429 23.6 378.429 23.6C346.229 23.6 326.229 52.4001 326.229 91.2001C326.229 130.6 346.229 159.4 378.429 159.4ZM378.429 136.2C361.229 136.2 352.429 117.6 352.429 91.2001C352.429 65.4 361.229 46.8 378.429 46.8C395.429 46.8 404.429 65.4 404.429 91.2001C404.429 117.6 395.429 136.2 378.429 136.2Z" fill="#3B4B59"/>
<path d="M155.76 45.0001C155.76 19.4 174.36 0.800049 199.96 0.800049H246.96C272.56 0.800049 291.16 19.4 291.16 45.0001V139.8C291.16 165.4 272.56 184 246.96 184H199.96C174.36 184 155.76 165.4 155.76 139.8V45.0001ZM173.16 36.6C173.16 43 178.96 48.2001 185.36 48.2001H209.76V146.8C209.76 153.6 215.56 159.2 222.56 159.2C229.56 159.2 235.36 153.6 235.36 146.8V48.2001H259.96C266.36 48.2001 272.16 43 272.16 36.6C272.16 30.2 266.36 25 259.96 25H185.36C178.96 25 173.16 30.2 173.16 36.6Z" fill="#3B4B59"/>
<path d="M0.291016 45.0001C0.291016 19.4 18.891 0.800049 44.491 0.800049H91.491C117.091 0.800049 135.691 19.4 135.691 45.0001V139.8C135.691 165.4 117.091 184 91.491 184H44.491C18.891 184 0.291016 165.4 0.291016 139.8V45.0001ZM18.091 129.4C28.491 148.6 49.691 159.6 74.291 159.6C98.291 159.6 117.691 142 117.691 119.2C117.691 97.4001 101.691 84.2 71.691 78.8C56.091 76 47.891 71.4 47.891 63.2C47.891 54 56.891 47.2001 69.091 47.2001C78.491 47.2001 84.691 52.6001 91.091 61.0001C94.291 65.2001 98.691 68.0001 103.691 67.8C112.691 67.2001 117.891 58.4001 113.691 50.2001C104.891 33.8 88.291 23.8001 69.091 23.8001C42.491 23.8001 21.491 40.8 21.491 63.2C21.491 83.8 37.691 97.6 67.091 102.8C84.691 106 91.691 111.4 91.691 120.4C91.691 130.2 84.091 136 74.091 136C58.491 136 48.291 129.8 40.691 118.6C38.091 114.8 34.291 111.8 29.491 111.8C20.091 111.8 13.691 121.2 18.091 129.4Z" fill="#3B4B59"/>
</svg>
